<svg xmlns="http://www.w3.org/2000/svg" viewBox="0 0 441.83 492.45"><defs><style>.cls-1{fill:#ea3b32;}</style></defs><g id="Layer_2" data-name="Layer 2"><g id="Layer_1-2" data-name="Layer 1"><path class="cls-1" d="M17.6,243.47C15.86,259.72,25.88,278,34.68,290c7.72,10.45,12.84,14.89,30.45,23.79,37.71,19.08,49.63,5.53,68.82-11.58,20.21-15.17,48.62,29.09,26.26,36.42a20,20,0,0,1-7.38.88c-6-8.72-7.17-22.22-16.22-26.11-11.57-5-21.86,16.23-16.72,43.57s-8.52,34.73-8.52,34.73a105,105,0,0,0,12.1.92,34.15,34.15,0,0,0-6.47,5.5c-3.54,4.5-6.27,12.22,2.09,16.89,3.24,1.81,4.5,5.38,4.83,9.08-6.13,4.41-9.23,12.3-8.37,20.18,1.13,10.29,13,15.43,10.77,25.56a31,31,0,0,1-9.64,16.08s21.38,2.89,22.18-9.33,8.2-16.23,8.2-16.23,5.47,1.44,9,8.2.48,23.95.48,23.95,12.86-5,11.25-15.6a12.52,12.52,0,0,1,7.4-14s2.25.64,6.11,5.63S185,487,185,487s10-10.29,6.91-20.58a61.59,61.59,0,0,1-2.12-12,5.35,5.35,0,0,0,.83.12c5.79.32,6.59,10.13,6.59,10.13s8.36-7.24,7.4-17.53-9.49-18-20.26-20.9c-6.46-1.74-11.47,2.13-14.45,5.51a31,31,0,0,1-3.4-.37c-4.15-.69-6.45-5.34-7.6-8.81a11.41,11.41,0,0,0,9.21-5.17,13.71,13.71,0,0,1-9.32-1.61c-4.83-2.73-9.33-9-5.31-16.56,1.51-2.85,2.14-7,2.33-11,5.24,3.4,9.08,11.64,9.08,11.64s5.15-17.84-4.82-29.42a29.52,29.52,0,0,1-7.33-16.55c4.55.95,9.59,3,12.36,7.13,5.41,8.16,15.35,11.73,26.7,5.42a25.3,25.3,0,0,1-2.34,7.85c-16.51,33,31.63-17.64,27.18-47.19,3.91,3.92,4.43,16.76,2.89,21.87,8.84-10.85,8.6-30,4.25-42.78,7.83,18.28,8.65,32.11-1.8,50.39,22.26-12.68,50.91-14.77,74.15-4.38a14.46,14.46,0,0,1,4.5,2.21q-2.22-1.18-4.5-2.21c-14.37-4.08-29.82,17.91-32.67,30.75,5.65-10,17.84-10.61,27.55-7.49a39.25,39.25,0,0,0-11,5.72c-8.69,6.76-11.26,18.81-11.26,18.81,23.14-12.25,38.42,0,45.75,19.28,3.51,9.27,2.49,20.67,7.76,27.31,10.22,12.89,15.38,21.7-2.51,33.57,38.1,4.26,19.92-18,36.81-25.56,14.94,3.27,14,20.5,11.49,32.16,24.35-7.79,4.53-24,22.6-29.59,9.43,2.22,12,16,11.88,24.12,14.15-12.05,10-22.09,5.81-32.6,6,1.13,8.38,4,9,10.25,21.91-15.64.15-72.45-56.86-44.7a118.7,118.7,0,0,1-21.31-19.06c-5.75-6.54-9-15.64-10.72-24.71,9.29-6.29,19.89-16.16,23.89-30.12,7.77-27-8.1-56.42-39.86-55.06q-3.83.15-7.06.06A21,21,0,0,0,301,281a36,36,0,0,0-15.28-5.22s4.58-7.9,2.71-14.63a14.76,14.76,0,0,1,2.42,1.36c4.62,3.32,5.52,9.14,5.52,9.14,23.22-11.7,26.24-30,23.33-38.3-15.44,1.55-37.21,8-53.87-23.09,11.54,16.56,39.87,19.7,51.85,16.57,12.94-3.38,5.88,15.57,23,22.36,3.12,1.23,9.26,4.37,12.68,4.21a20.46,20.46,0,0,1,.65,8.11c-1.4,10.85-15.27,14.87-15.27,14.87s17.08,4.82,24.52-4.62c3.41-4.34,8.4-5.12,12.79-4.69.61,4.15.66,7.92-.54,10.12-3.81,7-8.24,9-8.24,9s15.08-.41,16.69-8.44a35.42,35.42,0,0,0,.53-8.52c.68.28,1.07.48,1.07.48l1.28-4.88a49.41,49.41,0,0,1,5.76,7.89,19.76,19.76,0,0,1,1.8,13.87s13.67-1.81,9.85-14.07,1.21-14.67,1.21-14.67,7.64,3.22,10.85,7a24.15,24.15,0,0,1,4.42,8.45s6.63-9-4-22.92-14.67-19.09-32.15-20.69-27.33-8.45-34.77-21.91S336,191.94,319.94,185.91c-9.92-3.72-23.86-19.11-28.62-28.63,6.28,4,15.41,10.95,20.26,17,23.91-5.46,37.57-2.37,58.44,10.08-3.34-13-1.46-30,5.49-41.71,10.15-17.15,29.17-22.71,39,7.81,5.17-6.15,4.87-18.6,2.39-26.1,6.11.6,12.31,6,13.92,13.5,5.42-11.11,2.62-24.18-11-26.32,7.34-7.67,15.19-4.56,20.26,5.06,6.93-18.71-7.71-32.23-26.31-27.54,0,0-3.21-9,2.23-10.87s17.1,2.59,17.1,2.59-8.62-25-22.64-19.18c-9.55,4-14,14.36-15.92,21-23.46.67-34,28.66-47.37,44.71C335.78,141,327.78,137.94,309.62,126c-32.2-25.57-49.84-17.77-67.56-13.28-18.2,4.61-33.54,3.23-37.82-18.71,8.29,16,23,19,39.47,13.46,23.46-7.87,44.37-10.43,60.61,11.86,12.91-16.5,4.56-28.21,1.21-38.66-34.29,2.35-48.11-6-48.35-10.74-.33-6.81,31.27-12,44.26-2.33,10.77-3.06,3.26-9,13.34-17.6,5.43-4.62-.4-11.46-.4-11.46-4.72-4.71-12.39-6.45-14.07-13.46,3.92.77,9.49,3.72,10.15,8,7.68-8.1,2-14.55-6.72-16.64-7.68-1.84-20.08-.26-40.91,12l-.45.3a96.43,96.43,0,0,0,4-10.25C263,2.44,246.46,3.88,236.2,5c-4.8.51-22.18,4.17-38.69,5.28S165.1,9.92,164.05,0c-4.3,13.29-.91,24.75,11.53,31.64-9.87,1.87-29.66,9.92-28.61,32.65-.37,37-21.78,60.25-21.78,60.25s27.66-3.79,39.46-23.49a51,51,0,0,1-4.23,24.15c-8.84,19.49-25.93,25.12-25.93,25.12s30.19,1.92,42.11-11.8A53,53,0,0,1,173.08,157c-7.44,18.89-15.68,22.91-15.68,22.91s31.76-7.84,41.4-25.73c.35-.63.67-1.24,1-1.83a18.46,18.46,0,0,1-.57,8.07,27.1,27.1,0,0,1-12.46,14.06c7.51,57.41-14.92,56.35-37.58,69.37-15.18,8.72-28.78,21.82-39.42,40.42-10.17,17.78-31.13,25.9-47,5.11-11.58-15.23-1.93-26.08-1.93-26.08-6.58-1.52-11.85,4-15.17,8.89-11.17-29.24,5.57-72,35.84-77.69,0,0-5.14-2.88-16.29-2A25.23,25.23,0,0,0,58,194.33a62.85,62.85,0,0,1,5.12-5.07c25.12-22.18,39.1-44.17,25.59-61.82S73.12,89.2,73.12,89.2s-6.52,8.19-7.8,15.9A38.74,38.74,0,0,1,46.59,84.77c-7.71-19.1,4.49-35.29,4.49-35.29S25,59.94,20,86c-3.1,16.33,10.1,25.49,20.42,30.07-3.79,1.51-7.66,2.42-10.88,1.83-10.18-1.88-14.48-11-14.48-11S8.84,125,28,132.59a121.69,121.69,0,0,0,27.42,6.82c4.26,5.81,7.57,14.25,2,23.67C48.2,178.93,33,192.6,26.7,209.4c-7.7-9-26.7-7.3-26.7-7.3S20.87,213,17.6,243.47Zm233-208.38c-9,3.65-17.43,10.41-31.62,4.5C225.81,28.14,234.3,35.62,250.64,35.09Z"/></g></g></svg>