<svg width="952" height="952" viewBox="0 0 952 952" fill="none" xmlns="http://www.w3.org/2000/svg">
<circle cx="476" cy="476" r="476" fill="url(#paint0_radial_330_114)" fill-opacity="0.5"/>
<rect x="100" y="175" width="32" height="32" fill="black"/>
<rect width="32" height="32" transform="matrix(-1 0 0 1 852 175)" fill="black"/>
<rect x="100" y="213" width="32" height="32" fill="black"/>
<rect width="32" height="32" transform="matrix(-1 0 0 1 852 213)" fill="black"/>
<rect x="100" y="251" width="32" height="32" fill="black"/>
<rect width="32" height="32" transform="matrix(-1 0 0 1 852 251)" fill="black"/>
<rect x="137" y="213" width="32" height="32" fill="black"/>
<rect width="32" height="32" transform="matrix(-1 0 0 1 815 213)" fill="black"/>
<rect x="174" y="213" width="32" height="32" fill="black"/>
<rect width="32" height="32" transform="matrix(-1 0 0 1 778 213)" fill="black"/>
<rect x="175" y="251" width="32" height="32" fill="black"/>
<rect width="32" height="32" transform="matrix(-1 0 0 1 777 251)" fill="black"/>
<rect x="213" y="251" width="32" height="32" fill="black"/>
<rect width="32" height="32" transform="matrix(-1 0 0 1 739 251)" fill="black"/>
<rect x="251" y="251" width="32" height="32" fill="black"/>
<rect width="32" height="32" transform="matrix(-1 0 0 1 701 251)" fill="black"/>
<rect x="251" y="289" width="32" height="32" fill="black"/>
<rect width="32" height="32" transform="matrix(-1 0 0 1 701 289)" fill="black"/>
<rect x="251" y="365" width="32" height="32" fill="black"/>
<rect width="32" height="32" transform="matrix(-1 0 0 1 701 365)" fill="black"/>
<rect x="251" y="403" width="32" height="32" fill="black"/>
<rect width="32" height="32" transform="matrix(-1 0 0 1 701 403)" fill="black"/>
<rect x="251" y="441" width="32" height="32" fill="black"/>
<rect width="32" height="32" transform="matrix(-1 0 0 1 701 441)" fill="black"/>
<rect x="213" y="479" width="32" height="32" fill="black"/>
<rect width="32" height="32" transform="matrix(-1 0 0 1 739 479)" fill="black"/>
<rect x="213" y="517" width="32" height="32" fill="black"/>
<rect width="32" height="32" transform="matrix(-1 0 0 1 739 517)" fill="black"/>
<rect x="213" y="555" width="32" height="32" fill="black"/>
<rect width="32" height="32" transform="matrix(-1 0 0 1 739 555)" fill="black"/>
<rect x="213" y="593" width="32" height="32" fill="black"/>
<rect width="32" height="32" transform="matrix(-1 0 0 1 739 593)" fill="black"/>
<rect x="251" y="593" width="32" height="32" fill="black"/>
<rect width="32" height="32" transform="matrix(-1 0 0 1 701 593)" fill="black"/>
<rect x="327" y="555" width="32" height="32" fill="black"/>
<rect width="32" height="32" transform="matrix(-1 0 0 1 625 555)" fill="black"/>
<rect x="327" y="517" width="32" height="32" fill="black"/>
<rect width="32" height="32" transform="matrix(-1 0 0 1 625 517)" fill="black"/>
<rect x="327" y="479" width="32" height="32" fill="black"/>
<rect width="32" height="32" transform="matrix(-1 0 0 1 625 479)" fill="black"/>
<rect x="365" y="403" width="32" height="32" fill="black"/>
<rect width="32" height="32" transform="matrix(-1 0 0 1 587 403)" fill="black"/>
<rect x="365" y="365" width="32" height="32" fill="black"/>
<rect width="32" height="32" transform="matrix(-1 0 0 1 587 365)" fill="black"/>
<rect x="365" y="327" width="32" height="32" fill="black"/>
<rect width="32" height="32" transform="matrix(-1 0 0 1 587 327)" fill="black"/>
<rect x="289" y="403" width="32" height="32" fill="black"/>
<rect width="32" height="32" transform="matrix(-1 0 0 1 663 403)" fill="black"/>
<rect x="289" y="365" width="32" height="32" fill="black"/>
<rect width="32" height="32" transform="matrix(-1 0 0 1 663 365)" fill="black"/>
<rect x="289" y="327" width="32" height="32" fill="black"/>
<rect width="32" height="32" transform="matrix(-1 0 0 1 663 327)" fill="black"/>
<rect x="289" y="289" width="32" height="32" fill="black"/>
<rect width="32" height="32" transform="matrix(-1 0 0 1 663 289)" fill="black"/>
<rect x="175" y="441" width="32" height="32" fill="black"/>
<rect width="32" height="32" transform="matrix(-1 0 0 1 777 441)" fill="black"/>
<rect x="403" y="403" width="32" height="32" fill="black"/>
<rect width="32" height="32" transform="matrix(-1 0 0 1 549 403)" fill="black"/>
<rect x="403" y="441" width="32" height="32" fill="black"/>
<rect width="32" height="32" transform="matrix(-1 0 0 1 549 441)" fill="black"/>
<rect x="403" y="593" width="32" height="32" fill="black"/>
<rect width="32" height="32" transform="matrix(-1 0 0 1 549 593)" fill="black"/>
<rect x="365" y="631" width="32" height="32" fill="black"/>
<rect width="32" height="32" transform="matrix(-1 0 0 1 587 631)" fill="black"/>
<rect x="365" y="669" width="32" height="32" fill="black"/>
<rect width="32" height="32" transform="matrix(-1 0 0 1 587 669)" fill="black"/>
<rect x="441" y="707" width="32" height="32" fill="black"/>
<rect width="32" height="32" transform="matrix(-1 0 0 1 511 707)" fill="black"/>
<rect x="441" y="745" width="32" height="32" fill="black"/>
<rect width="32" height="32" transform="matrix(-1 0 0 1 511 745)" fill="black"/>
<rect x="289" y="631" width="32" height="32" fill="black"/>
<rect width="32" height="32" transform="matrix(-1 0 0 1 663 631)" fill="black"/>
<rect x="289" y="669" width="32" height="32" fill="black"/>
<rect width="32" height="32" transform="matrix(-1 0 0 1 663 669)" fill="black"/>
<rect x="365" y="707" width="32" height="32" fill="black"/>
<rect width="32" height="32" transform="matrix(-1 0 0 1 587 707)" fill="black"/>
<rect x="365" y="745" width="32" height="32" fill="black"/>
<rect width="32" height="32" transform="matrix(-1 0 0 1 587 745)" fill="black"/>
<rect x="213" y="631" width="32" height="32" fill="black"/>
<rect width="32" height="32" transform="matrix(-1 0 0 1 739 631)" fill="black"/>
<rect x="213" y="669" width="32" height="32" fill="black"/>
<rect width="32" height="32" transform="matrix(-1 0 0 1 739 669)" fill="black"/>
<rect x="289" y="707" width="32" height="32" fill="black"/>
<rect width="32" height="32" transform="matrix(-1 0 0 1 663 707)" fill="black"/>
<rect x="403" y="365" width="32" height="32" fill="black"/>
<rect width="32" height="32" transform="matrix(-1 0 0 1 549 365)" fill="black"/>
<rect x="403" y="327" width="32" height="32" fill="black"/>
<rect width="32" height="32" transform="matrix(-1 0 0 1 549 327)" fill="black"/>
<rect x="327" y="403" width="32" height="32" fill="black"/>
<rect width="32" height="32" transform="matrix(-1 0 0 1 625 403)" fill="black"/>
<rect x="327" y="365" width="32" height="32" fill="black"/>
<rect width="32" height="32" transform="matrix(-1 0 0 1 625 365)" fill="black"/>
<rect x="327" y="327" width="32" height="32" fill="black"/>
<rect width="32" height="32" transform="matrix(-1 0 0 1 625 327)" fill="black"/>
<rect x="327" y="289" width="32" height="32" fill="black"/>
<rect width="32" height="32" transform="matrix(-1 0 0 1 625 289)" fill="black"/>
<rect x="213" y="441" width="32" height="32" fill="black"/>
<rect width="32" height="32" transform="matrix(-1 0 0 1 739 441)" fill="black"/>
<rect x="175" y="479" width="32" height="32" fill="black"/>
<rect width="32" height="32" transform="matrix(-1 0 0 1 777 479)" fill="black"/>
<rect x="175" y="517" width="32" height="32" fill="black"/>
<rect width="32" height="32" transform="matrix(-1 0 0 1 777 517)" fill="black"/>
<rect x="175" y="555" width="32" height="32" fill="black"/>
<rect width="32" height="32" transform="matrix(-1 0 0 1 777 555)" fill="black"/>
<rect x="175" y="593" width="32" height="32" fill="black"/>
<rect width="32" height="32" transform="matrix(-1 0 0 1 777 593)" fill="black"/>
<rect x="441" y="403" width="32" height="32" fill="black"/>
<rect x="441" y="517" width="32" height="32" fill="black"/>
<rect width="32" height="32" transform="matrix(-1 0 0 1 511 403)" fill="black"/>
<rect width="32" height="32" transform="matrix(-1 0 0 1 511 517)" fill="black"/>
<rect x="441" y="441" width="32" height="32" fill="black"/>
<rect x="441" y="555" width="32" height="32" fill="black"/>
<rect width="32" height="32" transform="matrix(-1 0 0 1 511 441)" fill="black"/>
<rect width="32" height="32" transform="matrix(-1 0 0 1 511 555)" fill="black"/>
<rect x="441" y="593" width="32" height="32" fill="black"/>
<rect width="32" height="32" transform="matrix(-1 0 0 1 511 593)" fill="black"/>
<rect x="403" y="631" width="32" height="32" fill="black"/>
<rect width="32" height="32" transform="matrix(-1 0 0 1 549 631)" fill="black"/>
<rect x="403" y="669" width="32" height="32" fill="black"/>
<rect width="32" height="32" transform="matrix(-1 0 0 1 549 669)" fill="black"/>
<rect x="441" y="669" width="32" height="32" fill="black"/>
<rect width="32" height="32" transform="matrix(-1 0 0 1 511 669)" fill="black"/>
<rect x="327" y="631" width="32" height="32" fill="black"/>
<rect width="32" height="32" transform="matrix(-1 0 0 1 625 631)" fill="black"/>
<rect x="327" y="669" width="32" height="32" fill="black"/>
<rect width="32" height="32" transform="matrix(-1 0 0 1 625 669)" fill="black"/>
<rect x="403" y="707" width="32" height="32" fill="black"/>
<rect width="32" height="32" transform="matrix(-1 0 0 1 549 707)" fill="black"/>
<rect x="403" y="745" width="32" height="32" fill="black"/>
<rect width="32" height="32" transform="matrix(-1 0 0 1 549 745)" fill="black"/>
<rect x="251" y="631" width="32" height="32" fill="black"/>
<rect width="32" height="32" transform="matrix(-1 0 0 1 701 631)" fill="black"/>
<rect x="251" y="669" width="32" height="32" fill="black"/>
<rect width="32" height="32" transform="matrix(-1 0 0 1 701 669)" fill="black"/>
<rect x="327" y="707" width="32" height="32" fill="black"/>
<rect width="32" height="32" transform="matrix(-1 0 0 1 625 707)" fill="black"/>
<rect x="441" y="365" width="32" height="32" fill="black"/>
<rect x="441" y="479" width="32" height="32" fill="black"/>
<rect width="32" height="32" transform="matrix(-1 0 0 1 511 365)" fill="black"/>
<rect width="32" height="32" transform="matrix(-1 0 0 1 511 479)" fill="black"/>
<rect x="441" y="327" width="32" height="32" fill="black"/>
<rect width="32" height="32" transform="matrix(-1 0 0 1 511 327)" fill="black"/>
<rect x="137" y="289" width="32" height="32" fill="black"/>
<rect width="32" height="32" transform="matrix(-1 0 0 1 815 289)" fill="black"/>
<rect x="137" y="327" width="32" height="32" fill="black"/>
<rect width="32" height="32" transform="matrix(-1 0 0 1 815 327)" fill="black"/>
<rect x="137" y="365" width="32" height="32" fill="black"/>
<rect width="32" height="32" transform="matrix(-1 0 0 1 815 365)" fill="black"/>
<rect x="137" y="403" width="32" height="32" fill="black"/>
<rect width="32" height="32" transform="matrix(-1 0 0 1 815 403)" fill="black"/>
<rect x="175" y="403" width="32" height="32" fill="black"/>
<rect width="32" height="32" transform="matrix(-1 0 0 1 777 403)" fill="black"/>
<rect x="213" y="403" width="32" height="32" fill="black"/>
<rect width="32" height="32" transform="matrix(-1 0 0 1 739 403)" fill="black"/>
<rect x="213" y="365" width="32" height="32" fill="black"/>
<rect width="32" height="32" transform="matrix(-1 0 0 1 739 365)" fill="black"/>
<defs>
<radialGradient id="paint0_radial_330_114" cx="0" cy="0" r="1" gradientUnits="userSpaceOnUse" gradientTransform="translate(476 476) rotate(90) scale(476)">
<stop stop-color="white"/>
<stop offset="1" stop-color="white" stop-opacity="0"/>
</radialGradient>
</defs>
</svg>
