<svg xmlns="http://www.w3.org/2000/svg" viewBox="0 0 2733.06 2288.66"><defs><style>.cls-1{fill:#fff;}</style></defs><g id="Layer_2" data-name="Layer 2"><g id="Layer_1-2" data-name="Layer 1"><path class="cls-1" d="M940.15,172.24c24.21,58.17,80.66,63.24,80.66,63.24s36.17-43.61,12-101.79-77.72-67.94-89.54-84.61C946.73,69.22,915.94,114.06,940.15,172.24Z"/><path class="cls-1" d="M1785.15,172.24c24.21-58.18-6.57-103-3.07-123.16-11.82,16.67-65.34,26.42-89.55,84.61s12,101.79,12,101.79S1761,230.41,1785.15,172.24Z"/><path class="cls-1" d="M667,1145.15c-23.77,1.24-47.51,5.76-67.64,12.73-40.21,14.51-58.88,30.9-67.33,41.47-8.29,11.12-6.78,17.35-4.13,21.26s8.26,7.72,20.68,5.47c12.67-1.85,31.92-9.94,66.69-22.53,17.5-6,37.29-12.68,57.84-18.06a466.59,466.59,0,0,1,61-11.92,439.36,439.36,0,0,1,49.2-3c12.56.28,20.19.51,20.19.51s-1.76-.79-4.93-2.18-7.88-3.48-13.87-5.72A298.83,298.83,0,0,0,735,1149.4,292,292,0,0,0,667,1145.15Z"/><path class="cls-1" d="M706.07,1122.51c12,5.27,33,8.7,69.71,18.19,18.25,5,38.79,11.11,59.06,19.09a396.57,396.57,0,0,1,57.39,27.78c17.28,10.18,31.4,21.08,41.55,29,9.81,8.48,15.77,13.58,15.77,13.58s-.92-1.73-2.59-4.93-4.05-7.87-7.44-13.6a273.08,273.08,0,0,0-31.88-42.72,277.12,277.12,0,0,0-54.07-45.42c-20.79-13.34-43.75-23.64-65.09-29.52-10.76-2.65-20.37-4.85-29.12-5.78a157.09,157.09,0,0,0-23.12-1.47,98,98,0,0,0-17.44,1.38,56.94,56.94,0,0,0-12.38,2.91c-13.44,5-15.51,11.1-15.35,15.85S694.07,1117.77,706.07,1122.51Z"/><path class="cls-1" d="M2019.23,1122.51c12-4.74,14.84-10.78,15-15.63s-1.91-10.85-15.34-15.85a57.38,57.38,0,0,0-12.38-2.91,98,98,0,0,0-17.45-1.38,157,157,0,0,0-23.11,1.47c-8.75.93-18.37,3.13-29.11,5.78-21.36,5.88-44.31,16.18-65.11,29.52a277,277,0,0,0-54.06,45.42,273.72,273.72,0,0,0-31.88,42.72c-3.38,5.73-5.73,10.49-7.45,13.6l-2.58,4.93s6-5.1,15.76-13.58c10.15-7.95,24.28-18.85,41.56-29a397,397,0,0,1,57.38-27.78c20.28-8,40.82-14.06,59.06-19.09C1986.21,1131.21,2007.25,1127.78,2019.23,1122.51Z"/><path class="cls-1" d="M1991.18,1173.57a466.41,466.41,0,0,1,61,11.92c20.55,5.38,40.34,12.06,57.84,18.06,34.78,12.59,54,20.68,66.68,22.53,12.43,2.25,17.94-1.42,20.69-5.47s4.15-10.14-4.13-21.26c-8.45-10.57-27.13-27-67.34-41.47-20.13-7-43.86-11.49-67.64-12.73a292.19,292.19,0,0,0-68,4.25,299.08,299.08,0,0,0-49.72,13.8c-6,2.24-10.64,4.37-13.87,5.72s-4.93,2.18-4.93,2.18,7.63-.23,20.18-.51A439,439,0,0,1,1991.18,1173.57Z"/><path class="cls-1" d="M1986.27,592.06c-15.3,15.69-13.83,45.1,4.14,57.65,13.48,9.41,32.28,8.18,46.88.66,34.85-18,45.26-67.62,26.88-102.28s-58.64-53.84-97.83-55.19c-53.09-1.85-108.27,29.37-126,79.45-17.48,49.47,3.35,105.3,36.17,146.22,58.17,72.53,150.24,109.65,241.55,94.87-16.11,2.64-43.92-7.84-60.23-11.6a277,277,0,0,1-61.45-22.08c-39-19.47-73.59-48.11-99-83.66-22.26-31.2-38.06-70.2-29.53-107.57,9.16-40.17,48.46-71.28,89.65-71s80,32,88.6,72.28C2029.12,576.08,2001.58,576.36,1986.27,592.06Z"/><path class="cls-1" d="M728.91,779.76a276.79,276.79,0,0,1-61.45,22.08c-16.31,3.76-44.12,14.24-60.22,11.6,91.3,14.78,183.38-22.34,241.54-94.87,32.83-40.92,53.66-96.75,36.18-146.22-17.73-50.08-72.91-81.3-126-79.45-39.2,1.35-79.46,20.55-97.84,55.19s-8,84.29,26.89,102.28c14.59,7.52,33.4,8.75,46.87-.66,18-12.55,19.44-42,4.14-57.65s-42.84-16-59.89-2.22c8.56-40.29,47.4-72,88.61-72.28s80.48,30.8,89.64,71c8.52,37.37-7.26,76.37-29.52,107.57C802.5,731.65,767.94,760.29,728.91,779.76Z"/><path class="cls-1" d="M501.81,872.48c98.34,47.62,218.08,47.28,317,1.43l26.09,56.33.84,1.79a59.91,59.91,0,0,0-6.28-3.35A191.7,191.7,0,0,0,813,919.13c-63.24-17.31-122.92,10.16-155.45,65.49-15.41,26.2-27.79,57.32-53.5,75.38-11.18,7.84-29.36,13.9-43,12.22-12.15-1.51-24.07-12.13-22.3-24.24,12.91,1.39,25.19-10.52,25.37-23.5s-10.63-24.8-23.4-27.08-26.3,4.33-33.57,15.07-8.56,25-4.74,37.32c11.14,36,53.26,49.69,87.3,43.84,55.7-9.58,112-53.61,133.88-105.68-6.21,31.57-3.87,66.85,23.9,87.83,1.06.81,2.15,1.58,3.27,2.33a81.65,81.65,0,0,0,52.08,12.83c9.23-1,19.22-3.89,26.08-10.44,11.21-10.65,10.83-36-8.64-36.35a18.55,18.55,0,0,0-8.4,35.3c-22.36-1.3-44.25-16.2-52.94-37.33-11.31-27.5-1.41-61.26,20.76-81.09,18.57-16.62,44.27-23.84,69.24-22.18q1.3,2.74,2.62,5.47c-8.68,1-19,3.1-23.54,4.66a79.44,79.44,0,0,0-51.63,95.46c-1.58-8.86,5-17.16,12.42-22.31s16-8.72,22.06-15.4c7.56-8.37,9.7-20.17,14.68-30.3a58.26,58.26,0,0,1,15.75-19.52,91,91,0,0,1,12.47-8c37.31,76.75,82.53,147,134.84,208.84a33.47,33.47,0,0,0-5.93,9.83c-3,7.2-5.65,17.77-5.79,32.74s2.32,34.39,11.64,57.45a162.07,162.07,0,0,0,47.76,63.76,160.24,160.24,0,0,0,22.45,15.2c-22.55-7.07-44.5-17.16-64-27.34-29.73-15.67-54.6-30.87-69-39.5-33.94-20.91-68.49-41.4-106.69-54.61a234.88,234.88,0,0,0-59.7-13.11,185.78,185.78,0,0,0-31.28.16,148.92,148.92,0,0,0-31.36,6.16A147.2,147.2,0,0,0,640,1240.27a119,119,0,0,0-21.69,26.66,111,111,0,0,0-7.9,15.81l-2.92,8.46a91.2,91.2,0,0,0-2.17,9.18,97.65,97.65,0,0,0,.27,37.18,113.28,113.28,0,0,0,13.19,34.08,101,101,0,0,0,24.66,28.24c10.12,7.9,22.33,14.43,36.13,17.08a114,114,0,0,0,12,1.46c4,.19,8.13-.2,12.22-.42a96.46,96.46,0,0,0,12.25-2.43,106.65,106.65,0,0,0,11.71-4.39c15.17-7.13,26.66-18.91,34.26-31.24a88.42,88.42,0,0,0,12.86-38.06,77.18,77.18,0,0,0-3.8-32.72c-4.18-10.34-9.52-16.76-14.22-19.77s-8.09-3.06-10.3-1.27c-4.74,3.84-3.15,13.75-5.38,28.34a85.08,85.08,0,0,1-7.3,25.13c-4.1,8.54-10.12,17-17.25,22.26a32.37,32.37,0,0,1-15.46,6.63,37,37,0,0,1-16.55-1.48c-10.9-4.11-22.09-13.77-28.74-26.5a66.16,66.16,0,0,1-7.19-19.9,57.68,57.68,0,0,1,.14-20.18c3.1-14.27,10.9-28,22.53-39.34a111.31,111.31,0,0,1,19.48-15.25,134.37,134.37,0,0,1,22.94-11.06,124.42,124.42,0,0,1,25-6.16,170.59,170.59,0,0,1,26.52-1.63c35.94.86,72,12.88,105.34,29.5,53.48,26.65,98.94,64.71,154.95,91.27,6.81,3.22,15.06,6.87,24.43,10.44a232,232,0,0,0,31.34,9.45,197.12,197.12,0,0,0,35.54,4.91,169.71,169.71,0,0,0,36.21-1.7c23.51-3.25,44.19-12.85,56.66-22.7,2-1.65,3.84-3.27,5.48-4.84q18.21,10,37,18.94a225.6,225.6,0,0,0-29.78,10.61c-50.18,21.92-89.65,62.75-123,106.16-17.25,22.46-33.48,46.13-55.07,64.46s-49.92,31-77.92,26.69c-30.37-4.7-55.62-29.85-63.77-59.47s-.38-62.41,17.38-87.51c26.41-37.33,86.21-69.48,122.23-23.67a49.23,49.23,0,0,1,9.18,19.22c1.19,5-.59,15.22,1.19,18.77-7.54-15-30.43-18.26-43.06-7.21s-13.45,32.33-3.12,45.55,29.53,17.89,45.55,12.89c30.7-9.64,43.45-50.87,29.42-79.82s-47.56-44.66-79.73-45.29c-42-.86-83.65,21.6-106,57.1S871,1505.54,889.89,1543s58.22,63.82,100.08,67c60.65,4.58,115.94-36.27,153.92-83.8,22.38-28,41-58.92,63.39-86.89a292.46,292.46,0,0,1,39-40.49,84.79,84.79,0,0,0-15.4,30.1c-6.18,22.78-1.14,48.91,15.05,66.11s43.63,23.61,64.83,13.2c12.41-6.09,22.34-18,23.93-31.78s-6.44-28.6-19.55-33-29.61,4.07-32,17.69,12.54,27.64,25.56,23c-19.55,10-45.73.53-56.93-18.36s-8.27-44.23,4.41-62.16a94.85,94.85,0,0,1,27-25.47q27.81,11.69,56.75,21.08l22.75,7.36,22.75-7.36q28.93-9.36,56.76-21.08a94.41,94.41,0,0,1,27,25.47c12.69,17.93,15.62,43.27,4.43,62.16s-37.39,28.38-57,18.36c13,4.64,27.91-9.38,25.55-23s-18.85-22.1-32-17.69-21.14,19.27-19.54,33,11.52,25.69,23.92,31.78c21.21,10.41,48.65,4,64.84-13.2s21.23-43.33,15-66.11a84.47,84.47,0,0,0-15.4-30.1,292.54,292.54,0,0,1,39,40.49c22.42,28,41,58.88,63.39,86.89,38,47.53,93.28,88.38,153.93,83.8,41.84-3.14,81.2-29.48,100.07-67s16.63-84.77-5.75-120.29-64.05-58-106-57.1c-32.16.63-65.68,16.35-79.72,45.29s-1.31,70.18,29.4,79.82c16,5,35.2.33,45.54-12.89s9.53-34.51-3.12-45.55-35.5-7.77-43,7.21c1.77-3.55,0-13.82,1.18-18.77a49.51,49.51,0,0,1,9.18-19.22c36-45.81,95.82-13.66,122.24,23.67,17.75,25.1,25.53,57.89,17.37,87.51s-33.4,54.77-63.76,59.47c-28,4.33-56.33-8.36-77.93-26.69s-37.8-42-55.06-64.46c-33.34-43.41-72.84-84.24-123-106.16a225.74,225.74,0,0,0-29.79-10.61q18.77-9,37-19c1.64,1.58,3.46,3.2,5.48,4.85,12.47,9.85,33.14,19.45,56.66,22.7a169.68,169.68,0,0,0,36.21,1.7,197.25,197.25,0,0,0,35.54-4.91,230.68,230.68,0,0,0,31.34-9.45c9.38-3.57,17.61-7.22,24.42-10.44,56-26.56,101.48-64.62,154.94-91.27,33.33-16.62,69.4-28.64,105.35-29.5a170.92,170.92,0,0,1,26.54,1.63,124.83,124.83,0,0,1,25,6.16,134.73,134.73,0,0,1,22.94,11.06,110.5,110.5,0,0,1,19.47,15.25c11.65,11.33,19.44,25.07,22.53,39.34a57,57,0,0,1,.14,20.18,66.13,66.13,0,0,1-7.18,19.9c-6.65,12.73-17.85,22.39-28.73,26.5a37.05,37.05,0,0,1-16.55,1.48,32.44,32.44,0,0,1-15.48-6.63c-7.12-5.27-13.15-13.72-17.25-22.26a84.41,84.41,0,0,1-7.28-25.13c-2.25-14.59-.65-24.5-5.39-28.34-2.21-1.79-5.54-1.74-10.3,1.27s-10,9.43-14.22,19.77a77.17,77.17,0,0,0-3.81,32.72,88.69,88.69,0,0,0,12.86,38.06c7.6,12.33,19.1,24.11,34.27,31.24a107.26,107.26,0,0,0,11.7,4.39,96.61,96.61,0,0,0,12.26,2.43,121.91,121.91,0,0,0,12.21.42,113.71,113.71,0,0,0,12-1.46c13.81-2.65,26-9.18,36.14-17.08a101.18,101.18,0,0,0,24.66-28.24,112.74,112.74,0,0,0,13.18-34.08,97.45,97.45,0,0,0,.29-37.18,94,94,0,0,0-2.18-9.18l-2.92-8.46a112.11,112.11,0,0,0-7.9-15.81,119,119,0,0,0-21.69-26.66,147.09,147.09,0,0,0-56.73-31.78,148.67,148.67,0,0,0-31.36-6.16,185.77,185.77,0,0,0-31.28-.16,235.06,235.06,0,0,0-59.7,13.11c-38.19,13.21-72.74,33.7-106.68,54.61-14.36,8.63-39.24,23.83-69,39.5-19.55,10.18-41.5,20.27-64,27.34a161.83,161.83,0,0,0,70.2-79c9.31-23.06,11.77-42.55,11.64-57.45s-2.76-25.54-5.78-32.74a34.11,34.11,0,0,0-5.94-9.84c52.3-61.8,97.52-132.08,134.83-208.83a91,91,0,0,1,12.47,8,58,58,0,0,1,15.75,19.52c5,10.13,7.12,21.93,14.68,30.3,6,6.68,14.69,10.24,22.06,15.4s14,13.45,12.43,22.31A79.46,79.46,0,0,0,1897.3,949c-4.55-1.56-14.87-3.69-23.55-4.66q1.32-2.73,2.62-5.47c25-1.66,50.67,5.56,69.24,22.18,22.18,19.83,32.08,53.59,20.77,81.09-8.69,21.13-30.59,36-53,37.33a18.55,18.55,0,0,0-8.39-35.3c-19.48.37-19.85,25.7-8.65,36.35,6.87,6.55,16.86,9.49,26.09,10.44a81.69,81.69,0,0,0,52.08-12.83c1.11-.75,2.2-1.52,3.27-2.33,27.76-21,30.11-56.26,23.89-87.83,21.88,52.07,78.19,96.1,133.89,105.68,34,5.85,76.16-7.79,87.29-43.84,3.83-12.37,2.54-26.58-4.73-37.32s-20.81-17.34-33.58-15.07-23.56,14.11-23.39,27.08,12.46,24.89,25.36,23.5c1.78,12.11-10.15,22.73-22.3,24.24-13.62,1.68-31.8-4.38-43-12.22-25.71-18.06-38.08-49.18-53.49-75.38-32.54-55.33-92.22-82.8-155.45-65.49a191.35,191.35,0,0,0-26.49,9.55,59.91,59.91,0,0,0-6.28,3.35l.84-1.79,26.09-56.33c98.91,45.85,218.65,46.19,317-1.43,44.28-21.41,85.43-53.34,107.14-97.48s20.14-101.76-12.6-138.46c-30-33.6-80-43.78-124.14-35.11-46,9-89.69,38.9-106.31,82.76s.27,100.44,42.48,120.91,102.43-8.52,105.9-55.29c1.66-22.8-11.1-47.18-32.6-54.94s-49.37,5.94-52.8,28.55c-22.45-37.5,7.39-92,50.44-99.53s86.82,26,98,68.24-6,88.67-36.55,119.92-72.68,49-115.39,58.35c-123.31,26.93-230.78-21.26-319.41-102-35.82-61.21-57-136.22-65.81-211.8,44.94-1.49,92.35-41.47,129.4-62.44,49.69-28.11,113.13-48.25,162.13-18.92,25.18,15.1,41.77,40.75,62.29,61.76,48.91,50.16,97.18,23.82,154.84,5.76-40.42,12.72-81.38-18.67-106.53-52.76s-45.43-74.87-82.93-94.57c-29.34-15.43-65.12-14.95-96.7-4.94s-59.69,28.7-86.06,48.75c20.11-43,13.4-97.22-16.58-134S1800,251,1753.85,262a126.37,126.37,0,0,0-55.77,30.14l-1.32-.67c.09-6.28.9-13.05.5-18.42a204.39,204.39,0,0,0-4.32-29.93c-15.52-68.71-71.7-111.44-140.6-114.36-32.63-1.38-68.38,2.6-98.48-12.67-13.1-6.64-28-20.82-33.3-34.58-4.71-12.28-.65-29,11.73-33.38,5.19,12.93,22.69,18.57,35.08,12.18s18.17-22.6,13.86-35.85S1463.86,1.69,1450,.22s-28,4.48-37.78,14.36c-28.56,28.76-20.23,75.6,2.5,104.91,37.2,48,107.41,79.15,167.82,73.61-14.65,4.45-29.14,10.88-41.25,19.85l-178.64-90.22L1184,213c-12.11-9-26.59-15.41-41.24-19.86,60.42,5.54,130.62-25.63,167.82-73.61,22.73-29.31,31.06-76.15,2.5-104.91C1303.29,4.7,1289.16-1.25,1275.3.22s-26.94,11-31.24,24.24,1.48,29.47,13.87,35.85,29.89.75,35.09-12.18c12.38,4.42,16.43,21.1,11.72,33.38-5.28,13.76-20.2,27.94-33.3,34.58-30.1,15.27-65.85,11.29-98.48,12.67-68.9,2.92-125.08,45.65-140.6,114.36a204.37,204.37,0,0,0-4.31,29.93c-.41,5.37.41,12.14.49,18.42l-1.32.67A126.37,126.37,0,0,0,971.45,262c-46.16-11-97.91,6.47-127.87,43.26s-36.7,91-16.58,134c-26.37-20.05-54.46-38.76-86.06-48.75s-67.37-10.49-96.7,4.94c-37.51,19.7-57.77,60.47-82.94,94.57s-66.11,65.48-106.53,52.76c57.66,18.06,105.93,44.4,154.84-5.76,20.52-21,37.11-46.66,62.29-61.76,49-29.33,112.44-9.19,162.13,18.92,37.06,21,84.46,60.95,129.4,62.44-8.77,75.59-30,150.6-65.82,211.8C809,849.15,701.52,897.32,578.22,870.4c-42.71-9.34-84.83-27.08-115.4-58.35s-47.75-77.68-36.55-119.92,55-75.79,98-68.24,72.89,62,50.44,99.53c-3.42-22.61-31.27-36.3-52.79-28.55s-34.27,32.14-32.6,54.94c3.46,46.77,63.71,75.76,105.89,55.29S654.36,728,637.73,684.19s-60.29-73.73-106.31-82.76c-44.15-8.67-94.2,1.51-124.15,35.11-32.73,36.7-34.33,94.33-12.6,138.46S457.53,851.07,501.81,872.48Zm681.68,466.24a189.83,189.83,0,0,1-35.14,7.53,178.1,178.1,0,0,1-83.94-54.31c-14-16.39-24-35.18-31.11-52.54a265.52,265.52,0,0,1-13.07-43.13c-.31-1.4-.62-2.75-.91-4.06,52.71,56.08,111.79,104,176.52,142.11C1192.1,1335.8,1188,1337.33,1183.49,1338.72Zm521.58-142.45a267.16,267.16,0,0,1-13,43.13c-7.14,17.36-17.12,36.15-31.12,52.54a178.05,178.05,0,0,1-84,54.31,189.53,189.53,0,0,1-35.13-7.53c-4.52-1.4-8.62-2.92-12.35-4.4,64.72-38.08,123.81-86,176.52-142.12C1705.69,1193.51,1705.39,1194.87,1705.07,1196.27ZM1777.83,317c45.19,4,81,49.53,78.51,94.85s-39.3,85.17-83.4,95.8a115.13,115.13,0,0,1-14.92,2.55c-.9-17.93-1.11-35.74-.67-53.24,17.13-11.41,28-32.66,23.09-52.63a45.45,45.45,0,0,0-16.86-25l5.93-51-17.27-8.72A70.5,70.5,0,0,1,1777.83,317ZM1636.4,232.71c26.06,9.55,46.39,31.45,57.16,57.15l-11-5.56a116.2,116.2,0,0,0-10.34-11.85,86.56,86.56,0,0,0-41.73-21.69,83.58,83.58,0,0,0-17.5-1.59l-32.77-16.55A83.7,83.7,0,0,1,1636.4,232.71Zm77,130.88-3,25.77c-18.56,159.45,15,355.5,118.82,473.18l16,18.11-10.5,22.66c-98,211.47-258.32,373.58-463.52,440l-8.53,2.75-8.53-2.75c-205.2-66.41-365.57-228.52-463.52-440l-10.5-22.66,16-18.11c103.82-117.68,137.38-313.73,118.82-473.18l-3-25.77,350.73-177.13ZM1088.9,232.71a83.7,83.7,0,0,1,56.19-.1l-32.81,16.57a83.44,83.44,0,0,0-17.48,1.58,86.52,86.52,0,0,0-41.72,21.69,116.2,116.2,0,0,0-10.34,11.85l-11,5.55C1042.51,264.16,1062.85,242.26,1088.9,232.71ZM952.36,507.6C908.26,497,871.44,457.1,869,411.8S902.29,321,947.48,317a70.47,70.47,0,0,1,25.58,2.54l-17.28,8.72,5.94,51a45.5,45.5,0,0,0-16.86,25c-4.86,20,6,41.21,23.09,52.62.44,17.51.23,35.32-.67,53.26A115.16,115.16,0,0,1,952.36,507.6Z"/><path class="cls-1" d="M918,887.15c86.24,186.18,233.68,354.34,444.63,422.6,210.95-68.26,358.39-236.42,444.63-422.6-114.54-129.81-146.45-340.09-127.57-502.33L1362.65,224.69,1045.59,384.82C1064.47,547.06,1032.56,757.34,918,887.15Zm444.63-616.74,270.84,134.85c-13.24,157.35,21.85,337.57,117.42,457.67-85.28,170.31-218.67,301.34-388.26,358.18-169.59-56.84-303-187.87-388.26-358.18,95.58-120.1,130.66-300.32,117.41-457.67Z"/><path class="cls-1" d="M1426,566.1c-13.19-.59-9.69,9.42-1.19,9.14,17-.55,47.33,12.72,53.61-11.56C1454.41,576.19,1437.93,566.63,1426,566.1Z"/><path class="cls-1" d="M1157.33,742.32c-1.74,16.25,8.28,34.55,17.09,46.48,7.71,10.45,12.84,14.89,30.44,23.8,37.72,19.08,49.63,5.52,68.82-11.59,20.21-15.16,48.62,29.09,26.26,36.42a19.91,19.91,0,0,1-7.37.88c-6-8.72-7.18-22.22-16.22-26.11-11.58-5-21.87,16.24-16.72,43.57s-8.53,34.73-8.53,34.73a104.05,104.05,0,0,0,12.1.93,33.78,33.78,0,0,0-6.47,5.5c-3.54,4.5-6.27,12.22,2.09,16.88,3.25,1.81,4.5,5.38,4.83,9.08-6.13,4.42-9.23,12.3-8.37,20.18,1.13,10.29,13,15.44,10.77,25.56a31,31,0,0,1-9.64,16.09s21.38,2.89,22.18-9.33,8.21-16.24,8.21-16.24,5.46,1.45,9,8.2.48,24,.48,24,12.86-5,11.26-15.6,7.39-14,7.39-14,2.25.64,6.11,5.62,3.7,18.49,3.7,18.49,10-10.29,6.91-20.58a62.38,62.38,0,0,1-2.12-12,6.94,6.94,0,0,0,.83.11c5.79.32,6.6,10.13,6.6,10.13s8.36-7.24,7.39-17.52-9.48-18-20.26-20.91c-6.45-1.73-11.47,2.14-14.44,5.51a30.52,30.52,0,0,1-3.4-.36c-4.16-.69-6.46-5.34-7.61-8.82a11.39,11.39,0,0,0,9.21-5.17,13.64,13.64,0,0,1-9.32-1.61c-4.82-2.73-9.33-9-5.31-16.56,1.51-2.84,2.14-7,2.33-11,5.24,3.39,9.09,11.63,9.09,11.63s5.14-17.84-4.82-29.42a29.55,29.55,0,0,1-7.34-16.55c4.55,1,9.59,3,12.36,7.14,5.42,8.15,15.35,11.73,26.71,5.41a25.45,25.45,0,0,1-2.35,7.85c-16.51,33,31.63-17.63,27.18-47.18,3.92,3.91,4.43,16.76,2.89,21.86,8.85-10.85,8.61-30,4.25-42.77,7.84,18.27,8.65,32.1-1.79,50.39,22.25-12.69,50.9-14.78,74.14-4.39a14.57,14.57,0,0,1,4.5,2.21c-1.47-.79-3-1.52-4.5-2.21-14.36-4.08-29.81,17.91-32.66,30.75,5.65-10,17.83-10.61,27.55-7.48a38.79,38.79,0,0,0-11,5.72c-8.69,6.75-11.26,18.81-11.26,18.81,23.15-12.26,38.43,0,45.75,19.28,3.52,9.26,2.49,20.67,7.76,27.3,10.23,12.89,15.38,21.7-2.51,33.58,38.1,4.26,19.92-18,36.81-25.56,15,3.26,14,20.5,11.5,32.15,24.34-7.78,4.52-24,22.59-29.58,9.43,2.22,12,16,11.88,24.11,14.15-12.05,10-22.08,5.82-32.59,6,1.13,8.37,4,9,10.25,21.91-15.65.15-72.46-56.85-44.7A118.82,118.82,0,0,1,1478.93,894c-5.74-6.54-9-15.64-10.72-24.71,9.3-6.28,19.89-16.16,23.9-30.12,7.77-27-8.11-56.41-39.86-55.06-2.56.11-4.9.13-7.07.06a20.5,20.5,0,0,0-4.41-4.34,35.91,35.91,0,0,0-15.27-5.23s4.58-7.9,2.7-14.62a13.09,13.09,0,0,1,2.42,1.36c4.63,3.31,5.53,9.14,5.53,9.14,23.21-11.71,26.24-30,23.33-38.31-15.44,1.56-37.21,8-53.87-23.09,11.53,16.57,39.86,19.7,51.85,16.57,12.93-3.38,5.87,15.57,23,22.36,3.12,1.24,9.27,4.38,12.69,4.21a20.49,20.49,0,0,1,.64,8.11c-1.4,10.86-15.27,14.88-15.27,14.88s17.09,4.82,24.52-4.63c3.42-4.34,8.4-5.11,12.79-4.69.62,4.16.66,7.93-.53,10.12-3.82,7-8.24,9-8.24,9s15.07-.4,16.68-8.44a34.4,34.4,0,0,0,.53-8.52c.68.28,1.08.48,1.08.48l1.27-4.87a49.41,49.41,0,0,1,5.76,7.89,19.76,19.76,0,0,1,1.81,13.86s13.67-1.81,9.85-14.07,1.2-14.66,1.2-14.66,7.64,3.21,10.85,7a24.27,24.27,0,0,1,4.43,8.44s6.63-9.05-4-22.91-14.68-19.09-32.16-20.7-27.33-8.44-34.76-21.91-13.87-15.88-29.95-21.9c-9.92-3.72-23.85-19.11-28.62-28.63,6.28,4,15.41,10.94,20.27,17,23.91-5.45,37.57-2.37,58.44,10.09-3.35-13-1.47-30,5.48-41.72,10.16-17.14,29.18-22.7,39,7.81,5.17-6.14,4.87-18.6,2.38-26.1,6.11.61,12.31,6,13.92,13.5,5.42-11.11,2.62-24.17-11-26.31,7.33-7.68,15.18-4.56,20.25,5.06,6.94-18.71-7.7-32.24-26.31-27.55,0,0-3.21-9,2.23-10.87s17.1,2.59,17.1,2.59-8.62-25-22.63-19.18c-9.56,4-14,14.37-15.93,21-23.46.67-34,28.67-47.36,44.72-11.39,13.72-19.4,10.64-37.55-1.26-32.21-25.58-49.85-17.78-67.57-13.29-18.19,4.62-33.54,3.24-37.82-18.71,8.29,16,23,19,39.47,13.47,23.46-7.87,44.37-10.43,60.62,11.86,12.9-16.51,4.55-28.22,1.2-38.67-34.29,2.36-48.1-6-48.34-10.74-.34-6.8,31.27-12,44.25-2.33,10.78-3,3.26-9,13.34-17.6,5.43-4.62-.4-11.45-.4-11.45-4.71-4.72-12.38-6.45-14.07-13.47,3.92.77,9.49,3.73,10.15,8,7.68-8.1,2-14.55-6.72-16.63-7.68-1.84-20.08-.26-40.91,12l-.44.3a96.8,96.8,0,0,0,4-10.25c-3.37-16.14-19.89-14.7-30.15-13.61-4.79.5-22.17,4.17-38.68,5.28s-32.42-.34-33.46-10.26c-4.31,13.29-.92,24.76,11.53,31.65-9.88,1.87-29.67,9.91-28.62,32.64-.36,37-21.77,60.26-21.77,60.26s27.65-3.79,39.45-23.5a51,51,0,0,1-4.23,24.16c-8.84,19.49-25.92,25.12-25.92,25.12s30.18,1.91,42.1-11.81a52.75,52.75,0,0,1-3.52,18.44c-7.43,18.89-15.67,22.91-15.67,22.91s31.75-7.84,41.4-25.73c.34-.62.67-1.24,1-1.83a18.6,18.6,0,0,1-.58,8.07,27.1,27.1,0,0,1-12.46,14.07c7.51,57.41-14.92,56.35-37.58,69.36-15.18,8.72-28.78,21.83-39.42,40.42-10.16,17.78-31.13,25.9-47,5.11-11.59-15.23-1.94-26.07-1.94-26.07-6.58-1.53-11.85,4-15.16,8.89-11.18-29.25,5.56-72,35.83-77.7,0,0-5.14-2.87-16.29-2a25.23,25.23,0,0,0-7.28,1.87,63.09,63.09,0,0,1,5.13-5.08c25.11-22.18,39.09-44.17,25.59-61.82s-15.56-38.23-15.56-38.23-6.51,8.18-7.8,15.89a38.71,38.71,0,0,1-18.73-20.33c-7.7-19.09,4.49-35.29,4.49-35.29s-26.07,10.46-31,36.57c-3.1,16.32,10.1,25.49,20.43,30.06-3.8,1.52-7.67,2.43-10.89,1.84-10.18-1.88-14.47-11.06-14.47-11.06s-6.27,18.09,12.94,25.7a122.22,122.22,0,0,0,27.41,6.83c4.26,5.8,7.57,14.25,2,23.66-9.3,15.85-24.52,29.52-30.8,46.32-7.7-9-26.71-7.3-26.71-7.3S1160.6,711.83,1157.33,742.32Zm233.05-208.38c-9,3.66-17.43,10.41-31.63,4.51C1365.54,527,1374,534.48,1390.38,533.94Z"/><polygon class="cls-1" points="2725.3 1766.71 1479.35 1741.76 1479.35 1794.47 2725.3 1769.53 2725.3 1766.71"/><polygon class="cls-1" points="1245.95 1741.76 0 1766.71 0 1769.53 1245.95 1794.47 1245.95 1741.76"/><polygon class="cls-1" points="1487.11 2235.95 1487.11 2288.66 2733.06 2263.72 2733.06 2260.9 1487.11 2235.95"/><polygon class="cls-1" points="7.76 2263.72 1253.71 2288.66 1253.71 2235.95 7.76 2260.9 7.76 2263.72"/><path class="cls-1" d="M694.9,2168.21V1872.4H595.45v104.53H595v.42H502.77V1872.4H403.32v295.81h99.45V2059.45h.43V2059h92.25v109.18ZM496,2052.26v109.18H410.1V1879.17H496v104.95H602.22V1879.17h85.91v282.27H602.22V2052.26Z"/><path class="cls-1" d="M1073.24,1885.1a163.81,163.81,0,0,0-36.4-13.54c-15.66-4.24-32.16-5.93-49.51-5.93-31.32,0-60.09,6.35-85.91,19.47-25.39,13.54-45.28,32.16-59.67,55.44q-21.57,35.54-21.58,80c0,4.65,0,8.88.42,13.54a143.19,143.19,0,0,0,21.16,66,9.64,9.64,0,0,0,1.27,2.11c14,22.43,33.43,40.2,58.4,52.9,25.39,13.54,53.75,19.89,85.91,19.89,31.74,0,60.51-6.35,85.91-19.89,25.39-13.12,45.28-31.32,59.67-55s21.58-50.36,21.58-80-7.2-55.86-21.58-79.55S1098.63,1898.64,1073.24,1885.1Zm74.48,135.42a147,147,0,0,1-20.74,76.17c-13.54,22.43-32.58,39.78-57.13,52.48-24.54,13.11-52,19.46-82.52,19.46-30.89,0-58.4-6.35-82.52-19.46-12.27-6.35-23.28-13.55-32.59-22.43a152.57,152.57,0,0,1-24.54-30c-14-22.85-20.74-48.24-20.74-76.17,0-28.36,6.77-53.75,20.74-76.18,13.54-22.42,32.58-40.2,57.13-52.89q36.18-19,82.52-19,45.7,0,82.52,19c24.55,13.11,43.59,30.47,57.13,52.89S1147.72,1992.16,1147.72,2020.52Z"/><path class="cls-1" d="M1025,1949.42a70.32,70.32,0,0,0-37.24-10.15c-14,0-26.23,3.38-37.24,10.15a71.74,71.74,0,0,0-26.66,28.36c-6.35,11.84-9.73,26.23-9.73,42.31s3.38,30,9.73,42.32a69,69,0,0,0,26.66,28.36c11,6.77,23.28,10.15,37.24,10.15a70.1,70.1,0,0,0,63.48-38.51c6.35-11.85,9.73-25.81,9.73-42.32a92.92,92.92,0,0,0-9.73-42.31A73.71,73.71,0,0,0,1025,1949.42Zm20.32,110a62,62,0,0,1-24.13,25.81c-9.73,5.93-21.16,8.89-33.43,8.89h-.42a65.19,65.19,0,0,1-33.86-8.89c-10.15-5.92-17.77-14.81-23.69-25.81s-8.89-24.12-8.89-39.36c0-14.81,3-27.93,8.89-38.93s13.54-19.89,23.69-25.81a65.45,65.45,0,0,1,67.29,0h.42v.42a60.38,60.38,0,0,1,8.47,5.92,70.7,70.7,0,0,1,15.66,19.47q8.88,17.14,8.88,39.36C1053.77,2034.91,1050.81,2048,1045.31,2059.45Z"/><path class="cls-1" d="M1565,2034.91V1872.4H1466.8v160c0,21.58-4.23,37.24-11.84,47.39-8,9.74-19,14.81-33.44,14.81q-20.94,0-31.74-12.69c-.84-.85-1.26-1.69-2.11-2.54-7.62-9.73-11.43-25.39-11.43-47.4V1872.4h-99.87v162.93c0,43.59,12.27,77.44,36.4,102a2.19,2.19,0,0,0,1.69.84c25.39,24.55,60.51,36.82,106.22,36.82,45.28,0,80.83-12.27,106.22-36.82S1565,2079.34,1565,2034.91Zm-43.16,98.17c-23.7,23.28-57.55,34.71-101.14,34.71-43.17,0-77-11.43-101.14-34.71-24.13-22.85-36-55.43-36-98.17V1879.17h85.9v153.2c0,23.69,4.23,40.62,13.12,51.63,8.89,11.42,22,17.35,39.36,17.35,16.92,0,30-5.93,38.93-17.35s13.54-28.78,13.54-51.63v-153.2h83.79v155.74h-.42C1557.78,2077.22,1545.93,2109.81,1521.81,2133.08Z"/><path class="cls-1" d="M1798.38,1947.73v-.42H1939.3V1872.4H1698.5v295.81H1798v-94.37h.43v-.42h123.14v-74.91H1798v-50.78Zm116.37,57.55v61.36H1791.18v94.8h-85.91V1879.17H1932.1v61.37H1791.18v64.74Z"/><path class="cls-1" d="M2201.19,2175c45.28,0,80.83-12.27,106.22-36.82s38.09-58.82,38.09-103.25V1872h-98.18v160c0,22-4.23,37.67-11.85,47.4-7.62,10.16-19,14.81-33.43,14.81-14.81,0-26.24-4.65-33.86-14.81-7.61-9.73-11.42-25.39-11.42-47.4V1872h-99.87v162.93c0,44.43,12.69,78.71,38.08,103.25h0C2120.36,2162.71,2155.49,2175,2201.19,2175Z"/></g></g></svg>