<svg width="60" height="60" viewBox="0 0 60 60" fill="none" xmlns="http://www.w3.org/2000/svg">
<circle cx="30" cy="30" r="28.5" stroke="white" stroke-width="3"/>
<path fill-rule="evenodd" clip-rule="evenodd" d="M19.0527 29.7889C24.8831 27.2487 28.771 25.574 30.7163 24.7649C36.2705 22.4547 37.4246 22.0534 38.1768 22.0402C38.3423 22.0373 38.7122 22.0783 38.9518 22.2727C39.1542 22.4369 39.2098 22.6587 39.2365 22.8143C39.2631 22.97 39.2963 23.3246 39.2699 23.6017C38.9689 26.7641 37.6666 34.4386 37.004 37.9806C36.7237 39.4794 36.1716 39.9819 35.6372 40.0311C34.4758 40.138 33.5938 39.2635 32.4689 38.5262C30.7086 37.3723 29.7142 36.654 28.0056 35.528C26.0309 34.2268 27.311 33.5116 28.4364 32.3428C28.7309 32.0369 33.8482 27.3823 33.9472 26.96C33.9596 26.9072 33.9711 26.7104 33.8542 26.6065C33.7372 26.5025 33.5646 26.5381 33.4401 26.5663C33.2635 26.6064 30.4515 28.465 25.004 32.1423C24.2058 32.6904 23.4828 32.9574 22.835 32.9434C22.1209 32.928 20.7473 32.5397 19.7261 32.2077C18.4736 31.8006 17.4781 31.5853 17.5648 30.8939C17.61 30.5337 18.1059 30.1654 19.0527 29.7889Z" fill="white"/>
</svg>
