<svg xmlns="http://www.w3.org/2000/svg" viewBox="0 0 2733.06 2288.66"><defs><style>.cls-1{fill:#fff;}</style></defs><g id="Layer_2" data-name="Layer 2"><g id="Layer_1-2" data-name="Layer 1"><path class="cls-1" d="M944,172.24c24.21,58.17,80.65,63.24,80.65,63.24s36.18-43.61,12-101.79S958.92,65.75,947.1,49.08C950.61,69.22,919.82,114.06,944,172.24Z"/><path class="cls-1" d="M1789,172.24c24.21-58.18-6.58-103-3.08-123.16-11.82,16.67-65.33,26.42-89.54,84.61s12,101.79,12,101.79S1764.82,230.41,1789,172.24Z"/><path class="cls-1" d="M670.87,1145.15c-23.78,1.24-47.52,5.76-67.64,12.73-40.21,14.51-58.88,30.9-67.33,41.47-8.3,11.12-6.79,17.35-4.14,21.26s8.27,7.72,20.68,5.47c12.68-1.85,31.92-9.94,66.69-22.53,17.5-6,37.3-12.68,57.84-18.06a466.73,466.73,0,0,1,61-11.92,439.36,439.36,0,0,1,49.2-3c12.56.28,20.19.51,20.19.51l-4.94-2.18c-3.22-1.35-7.88-3.48-13.86-5.72a299.11,299.11,0,0,0-49.74-13.8A292.07,292.07,0,0,0,670.87,1145.15Z"/><path class="cls-1" d="M710,1122.51c12,5.27,33,8.7,69.71,18.19,18.25,5,38.79,11.11,59.06,19.09a396.57,396.57,0,0,1,57.39,27.78c17.27,10.18,31.4,21.08,41.55,29,9.81,8.48,15.77,13.58,15.77,13.58s-.92-1.73-2.59-4.93-4.05-7.87-7.44-13.6a272.6,272.6,0,0,0-31.89-42.72,276.75,276.75,0,0,0-54.06-45.42c-20.79-13.34-43.75-23.64-65.09-29.52-10.76-2.65-20.37-4.85-29.12-5.78a157.25,157.25,0,0,0-23.12-1.47,97.91,97.91,0,0,0-17.44,1.38A56.94,56.94,0,0,0,710.3,1091c-13.44,5-15.51,11.1-15.35,15.85S698,1117.77,710,1122.51Z"/><path class="cls-1" d="M2023.11,1122.51c12-4.74,14.84-10.78,15-15.63s-1.91-10.85-15.35-15.85a57.09,57.09,0,0,0-12.38-2.91,97.83,97.83,0,0,0-17.44-1.38,157,157,0,0,0-23.11,1.47c-8.75.93-18.37,3.13-29.11,5.78-21.36,5.88-44.32,16.18-65.11,29.52a277,277,0,0,0-54.06,45.42,273.88,273.88,0,0,0-31.89,42.72c-3.38,5.73-5.72,10.49-7.45,13.6s-2.57,4.93-2.57,4.93,5.95-5.1,15.76-13.58c10.15-7.95,24.28-18.85,41.55-29a397.58,397.58,0,0,1,57.39-27.78c20.27-8,40.81-14.06,59.06-19.09C1990.09,1131.21,2011.13,1127.78,2023.11,1122.51Z"/><path class="cls-1" d="M1995.06,1173.57a466.73,466.73,0,0,1,61,11.92c20.54,5.38,40.34,12.06,57.83,18.06,34.78,12.59,54,20.68,66.68,22.53,12.43,2.25,18-1.42,20.7-5.47s4.15-10.14-4.13-21.26c-8.45-10.57-27.13-27-67.34-41.47-20.14-7-43.86-11.49-67.64-12.73a292.19,292.19,0,0,0-68,4.25,298.52,298.52,0,0,0-49.72,13.8c-6,2.24-10.65,4.37-13.87,5.72s-4.93,2.18-4.93,2.18,7.63-.23,20.18-.51A439.09,439.09,0,0,1,1995.06,1173.57Z"/><path class="cls-1" d="M1990.15,592.06c-15.3,15.69-13.83,45.1,4.14,57.65,13.48,9.41,32.28,8.18,46.87.66,34.86-18,45.27-67.62,26.88-102.28s-58.63-53.84-97.83-55.19c-53.08-1.85-108.26,29.37-126,79.45-17.48,49.47,3.35,105.3,36.17,146.22,58.17,72.53,150.24,109.65,241.55,94.87-16.11,2.64-43.92-7.84-60.23-11.6a276.79,276.79,0,0,1-61.45-22.08c-39-19.47-73.59-48.11-99-83.66-22.26-31.2-38-70.2-29.52-107.57,9.16-40.17,48.46-71.28,89.65-71s80,32,88.6,72.28C2033,576.08,2005.46,576.36,1990.15,592.06Z"/><path class="cls-1" d="M732.79,779.76a277,277,0,0,1-61.45,22.08c-16.31,3.76-44.12,14.24-60.23,11.6,91.31,14.78,183.38-22.34,241.55-94.87,32.82-40.92,53.65-96.75,36.17-146.22-17.72-50.08-72.9-81.3-126-79.45-39.19,1.35-79.45,20.55-97.83,55.19s-8,84.29,26.89,102.28c14.59,7.52,33.4,8.75,46.87-.66,18-12.55,19.44-42,4.14-57.65s-42.85-16-59.89-2.22c8.56-40.29,47.4-72,88.6-72.28s80.49,30.8,89.65,71c8.52,37.37-7.27,76.37-29.53,107.57C806.38,731.65,771.82,760.29,732.79,779.76Z"/><path class="cls-1" d="M505.69,872.48c98.34,47.62,218.08,47.28,317,1.43l26.1,56.33c.27.6.56,1.19.83,1.79a59.81,59.81,0,0,0-6.27-3.35,192.17,192.17,0,0,0-26.48-9.55c-63.24-17.31-122.92,10.16-155.46,65.49-15.41,26.2-27.78,57.32-53.49,75.38-11.18,7.84-29.36,13.9-43,12.22-12.15-1.51-24.08-12.13-22.3-24.24,12.9,1.39,25.19-10.52,25.37-23.5s-10.64-24.8-23.4-27.08-26.31,4.33-33.57,15.07-8.57,25-4.74,37.32c11.13,36,53.26,49.69,87.29,43.84,55.7-9.58,112-53.61,133.89-105.68-6.21,31.57-3.87,66.85,23.89,87.83,1.07.81,2.16,1.58,3.28,2.33a81.63,81.63,0,0,0,52.07,12.83c9.23-1,19.23-3.89,26.09-10.44,11.2-10.65,10.83-36-8.64-36.35a18.55,18.55,0,0,0-8.4,35.3c-22.36-1.3-44.25-16.2-52.94-37.33-11.31-27.5-1.42-61.26,20.76-81.09,18.57-16.62,44.26-23.84,69.24-22.18l2.61,5.47c-8.67,1-19,3.1-23.54,4.66a79.46,79.46,0,0,0-51.63,95.46c-1.57-8.86,5-17.16,12.43-22.31s16-8.72,22.06-15.4c7.56-8.37,9.7-20.17,14.67-30.3a58.29,58.29,0,0,1,15.76-19.52,91,91,0,0,1,12.47-8c37.31,76.75,82.53,147,134.83,208.84a33.69,33.69,0,0,0-5.92,9.83c-3,7.2-5.65,17.77-5.79,32.74s2.32,34.39,11.63,57.45a162.26,162.26,0,0,0,47.76,63.76,160.33,160.33,0,0,0,22.46,15.2c-22.55-7.07-44.5-17.16-64-27.34-29.72-15.67-54.59-30.87-68.95-39.5-33.94-20.91-68.49-41.4-106.69-54.61a234.88,234.88,0,0,0-59.7-13.11,185.78,185.78,0,0,0-31.28.16,149,149,0,0,0-31.37,6.16,147.16,147.16,0,0,0-56.71,31.78,119.36,119.36,0,0,0-21.7,26.66,112.06,112.06,0,0,0-7.89,15.81l-2.92,8.46a91.2,91.2,0,0,0-2.17,9.18,97.85,97.85,0,0,0,.26,37.18,113,113,0,0,0,13.2,34.08,101,101,0,0,0,24.66,28.24c10.12,7.9,22.32,14.43,36.13,17.08a114.17,114.17,0,0,0,11.94,1.46,122.1,122.1,0,0,0,12.22-.42,96.27,96.27,0,0,0,12.26-2.43,106.65,106.65,0,0,0,11.71-4.39c15.16-7.13,26.66-18.91,34.26-31.24a88.42,88.42,0,0,0,12.86-38.06,77.18,77.18,0,0,0-3.8-32.72c-4.18-10.34-9.52-16.76-14.23-19.77s-8.08-3.06-10.29-1.27c-4.74,3.84-3.15,13.75-5.39,28.34a84.74,84.74,0,0,1-7.29,25.13c-4.1,8.54-10.12,17-17.25,22.26a32.36,32.36,0,0,1-15.47,6.63,37,37,0,0,1-16.55-1.48c-10.89-4.11-22.09-13.77-28.74-26.5a66.43,66.43,0,0,1-7.19-19.9,57.92,57.92,0,0,1,.15-20.18c3.1-14.27,10.89-28,22.53-39.34a111.61,111.61,0,0,1,19.47-15.25,134.73,134.73,0,0,1,22.94-11.06,124.35,124.35,0,0,1,25-6.16,170.59,170.59,0,0,1,26.52-1.63c35.94.86,72,12.88,105.34,29.5,53.48,26.65,98.94,64.71,155,91.27,6.81,3.22,15.06,6.87,24.43,10.44a231.55,231.55,0,0,0,31.34,9.45,197.12,197.12,0,0,0,35.54,4.91,169.58,169.58,0,0,0,36.2-1.7c23.52-3.25,44.2-12.85,56.66-22.7,2-1.65,3.85-3.27,5.49-4.84q18.21,10,37,18.94a225.6,225.6,0,0,0-29.78,10.61c-50.18,21.92-89.65,62.75-123,106.16-17.25,22.46-33.48,46.13-55.07,64.46s-49.92,31-77.92,26.69c-30.37-4.7-55.62-29.85-63.77-59.47s-.38-62.41,17.37-87.51c26.42-37.33,86.21-69.48,122.24-23.67a49.37,49.37,0,0,1,9.18,19.22c1.19,5-.59,15.22,1.19,18.77-7.54-15-30.43-18.26-43.06-7.21s-13.45,32.33-3.12,45.55,29.53,17.89,45.55,12.89c30.7-9.64,43.45-50.87,29.41-79.82s-47.56-44.66-79.73-45.29c-42-.86-83.65,21.6-106,57.1s-24.64,82.81-5.75,120.29,58.23,63.82,100.09,67c60.64,4.58,115.94-36.27,153.91-83.8,22.39-28,41-58.92,63.4-86.89a291.88,291.88,0,0,1,39-40.49,84.79,84.79,0,0,0-15.4,30.1c-6.18,22.78-1.14,48.91,15,66.11s43.64,23.61,64.84,13.2c12.41-6.09,22.33-18,23.93-31.78s-6.44-28.6-19.55-33-29.61,4.07-32,17.69,12.54,27.64,25.56,23c-19.55,10-45.74.53-56.93-18.36s-8.28-44.23,4.41-62.16a94.82,94.82,0,0,1,27-25.47q27.82,11.69,56.76,21.08l22.75,7.36,22.75-7.36q28.93-9.36,56.76-21.08a94.54,94.54,0,0,1,27,25.47c12.69,17.93,15.62,43.27,4.42,62.16s-37.39,28.38-56.94,18.36c13,4.64,27.91-9.38,25.55-23s-18.85-22.1-32-17.69-21.14,19.27-19.55,33,11.53,25.69,23.93,31.78c21.21,10.41,48.65,4,64.83-13.2s21.24-43.33,15-66.11a84.63,84.63,0,0,0-15.4-30.1,292.46,292.46,0,0,1,39,40.49c22.43,28,41,58.88,63.4,86.89,38,47.53,93.28,88.38,153.93,83.8,41.84-3.14,81.19-29.48,100.07-67s16.63-84.77-5.75-120.29-64-58-106-57.1c-32.16.63-65.67,16.35-79.72,45.29s-1.3,70.18,29.41,79.82c16,5,35.2.33,45.54-12.89s9.53-34.51-3.12-45.55-35.5-7.77-43.05,7.21c1.77-3.55,0-13.82,1.18-18.77a49.63,49.63,0,0,1,9.17-19.22c36-45.81,95.83-13.66,122.25,23.67,17.75,25.1,25.53,57.89,17.37,87.51s-33.4,54.77-63.76,59.47c-28,4.33-56.34-8.36-77.93-26.69s-37.81-42-55.07-64.46c-33.34-43.41-72.83-84.24-123-106.16a225.74,225.74,0,0,0-29.79-10.61q18.76-9,37-19,2.46,2.37,5.49,4.85c12.47,9.85,33.14,19.45,56.66,22.7a169.62,169.62,0,0,0,36.2,1.7,197.12,197.12,0,0,0,35.54-4.91,230.84,230.84,0,0,0,31.35-9.45c9.38-3.57,17.61-7.22,24.41-10.44,56-26.56,101.48-64.62,154.95-91.27,33.33-16.62,69.4-28.64,105.35-29.5a170.72,170.72,0,0,1,26.53,1.63,124.49,124.49,0,0,1,25,6.16,134.46,134.46,0,0,1,23,11.06,110.87,110.87,0,0,1,19.47,15.25c11.64,11.33,19.43,25.07,22.53,39.34a57.44,57.44,0,0,1,.14,20.18,66.13,66.13,0,0,1-7.18,19.9c-6.65,12.73-17.85,22.39-28.73,26.5a37.06,37.06,0,0,1-16.55,1.48,32.4,32.4,0,0,1-15.48-6.63c-7.13-5.27-13.15-13.72-17.25-22.26a84.41,84.41,0,0,1-7.28-25.13c-2.25-14.59-.65-24.5-5.4-28.34-2.2-1.79-5.54-1.74-10.29,1.27s-10.05,9.43-14.23,19.77a77.18,77.18,0,0,0-3.8,32.72,88.56,88.56,0,0,0,12.86,38.06c7.6,12.33,19.1,24.11,34.27,31.24a106.49,106.49,0,0,0,11.7,4.39,96.61,96.61,0,0,0,12.26,2.43,121.91,121.91,0,0,0,12.21.42,113.71,113.71,0,0,0,12-1.46c13.81-2.65,26-9.18,36.14-17.08a101.34,101.34,0,0,0,24.66-28.24,112.46,112.46,0,0,0,13.17-34.08,97.24,97.24,0,0,0,.3-37.18,91.19,91.19,0,0,0-2.19-9.18l-2.91-8.46a112.11,112.11,0,0,0-7.9-15.81,118.81,118.81,0,0,0-21.7-26.66,147,147,0,0,0-56.72-31.78,148.92,148.92,0,0,0-31.36-6.16,185.77,185.77,0,0,0-31.28-.16,235.06,235.06,0,0,0-59.7,13.11c-38.19,13.21-72.74,33.7-106.68,54.61-14.36,8.63-39.24,23.83-69,39.5-19.55,10.18-41.5,20.27-64,27.34a162,162,0,0,0,70.2-79c9.31-23.06,11.77-42.55,11.64-57.45s-2.76-25.54-5.79-32.74a33.67,33.67,0,0,0-5.94-9.84c52.31-61.8,97.53-132.08,134.84-208.83a91.64,91.64,0,0,1,12.47,8,58.14,58.14,0,0,1,15.75,19.52c5,10.13,7.12,21.93,14.68,30.3,6,6.68,14.69,10.24,22.06,15.4s14,13.45,12.43,22.31A79.46,79.46,0,0,0,1901.18,949c-4.55-1.56-14.87-3.69-23.55-4.66.87-1.82,1.75-3.64,2.61-5.47,25-1.66,50.68,5.56,69.25,22.18,22.17,19.83,32.07,53.59,20.76,81.09-8.69,21.13-30.58,36-52.94,37.33a18.55,18.55,0,0,0-8.4-35.3c-19.47.37-19.84,25.7-8.64,36.35,6.86,6.55,16.86,9.49,26.09,10.44a81.65,81.65,0,0,0,52.07-12.83c1.12-.75,2.21-1.52,3.28-2.33,27.76-21,30.1-56.26,23.89-87.83,21.87,52.07,78.19,96.1,133.89,105.68,34,5.85,76.16-7.79,87.29-43.84,3.83-12.37,2.54-26.58-4.74-37.32s-20.8-17.34-33.57-15.07-23.56,14.11-23.4,27.08,12.47,24.89,25.37,23.5c1.78,12.11-10.15,22.73-22.3,24.24-13.62,1.68-31.8-4.38-43-12.22-25.71-18.06-38.08-49.18-53.49-75.38-32.54-55.33-92.22-82.8-155.46-65.49a191.7,191.7,0,0,0-26.48,9.55,59.91,59.91,0,0,0-6.28,3.35l.84-1.79,26.09-56.33c98.91,45.85,218.65,46.19,317-1.43,44.28-21.41,85.43-53.34,107.14-97.48s20.14-101.76-12.6-138.46c-29.95-33.6-80-43.78-124.15-35.11-46,9-89.68,38.9-106.3,82.76s.27,100.44,42.48,120.91,102.43-8.52,105.89-55.29c1.67-22.8-11.09-47.18-32.6-54.94s-49.37,5.94-52.79,28.55c-22.45-37.5,7.38-92,50.44-99.53s86.81,26,98,68.24-6,88.67-36.55,119.92-72.68,49-115.4,58.35c-123.3,26.93-230.77-21.26-319.4-102-35.82-61.21-57-136.22-65.82-211.8,45-1.49,92.35-41.47,129.41-62.44,49.69-28.11,113.13-48.25,162.13-18.92,25.18,15.1,41.77,40.75,62.29,61.76,48.91,50.16,97.18,23.82,154.84,5.76C2234,555.48,2193,524.09,2167.88,490s-45.43-74.87-82.93-94.57c-29.34-15.43-65.12-14.95-96.71-4.94s-59.68,28.7-86.06,48.75c20.12-43,13.41-97.22-16.58-134S1803.89,251,1757.73,262A126.37,126.37,0,0,0,1702,292.14l-1.32-.67c.09-6.28.9-13.05.49-18.42a204.37,204.37,0,0,0-4.31-29.93c-15.52-68.71-71.7-111.44-140.6-114.36-32.64-1.38-68.38,2.6-98.48-12.67-13.1-6.64-28-20.82-33.3-34.58-4.71-12.28-.66-29,11.72-33.38,5.2,12.93,22.7,18.57,35.09,12.18s18.17-22.6,13.86-35.85S1467.74,1.69,1453.88.22s-28,4.48-37.78,14.36c-28.56,28.76-20.24,75.6,2.5,104.91,37.2,48,107.4,79.15,167.82,73.61-14.65,4.45-29.14,10.88-41.25,19.85l-178.64-90.22L1187.87,213c-12.1-9-26.58-15.41-41.23-19.86,60.42,5.54,130.62-25.63,167.82-73.61,22.73-29.31,31.06-76.15,2.5-104.91C1307.17,4.7,1293-1.25,1279.18.22s-26.94,11-31.24,24.24,1.48,29.47,13.87,35.85,29.89.75,35.09-12.18c12.37,4.42,16.43,21.1,11.72,33.38-5.28,13.76-20.2,27.94-33.3,34.58-30.1,15.27-65.85,11.29-98.48,12.67-68.9,2.92-125.08,45.65-140.6,114.36a204.37,204.37,0,0,0-4.31,29.93c-.41,5.37.4,12.14.49,18.42l-1.32.67A126.35,126.35,0,0,0,975.32,262c-46.15-11-97.9,6.47-127.86,43.26s-36.7,91-16.58,134c-26.38-20.05-54.47-38.76-86.06-48.75s-67.37-10.49-96.71,4.94c-37.5,19.7-57.76,60.47-82.93,94.57s-66.11,65.48-106.53,52.76c57.66,18.06,105.93,44.4,154.84-5.76,20.52-21,37.11-46.66,62.29-61.76,49-29.33,112.44-9.19,162.12,18.92,37.06,21,84.46,60.95,129.41,62.44-8.77,75.59-30,150.6-65.82,211.8-88.62,80.75-196.09,128.92-319.39,102-42.72-9.34-84.84-27.08-115.4-58.35S419,734.37,430.15,692.13s55-75.79,98-68.24,72.89,62,50.44,99.53c-3.42-22.61-31.28-36.3-52.79-28.55s-34.27,32.14-32.6,54.94c3.46,46.77,63.7,75.76,105.89,55.29S658.23,728,641.6,684.19s-60.28-73.73-106.3-82.76c-44.16-8.67-94.21,1.51-124.15,35.11-32.74,36.7-34.33,94.33-12.6,138.46S461.41,851.07,505.69,872.48Zm681.68,466.24a189.83,189.83,0,0,1-35.14,7.53,178,178,0,0,1-83.94-54.31c-14-16.39-24-35.18-31.11-52.54a264.52,264.52,0,0,1-13.07-43.13c-.32-1.4-.62-2.75-.92-4.06,52.72,56.08,111.8,104,176.52,142.11C1196,1335.8,1191.89,1337.33,1187.37,1338.72ZM1709,1196.27a267.16,267.16,0,0,1-13,43.13c-7.14,17.36-17.13,36.15-31.13,52.54a178,178,0,0,1-83.94,54.31,189.65,189.65,0,0,1-35.14-7.53c-4.52-1.4-8.61-2.92-12.35-4.4,64.73-38.08,123.81-86,176.53-142.12C1709.57,1193.51,1709.27,1194.87,1709,1196.27ZM1781.7,317c45.2,4,81,49.53,78.52,94.85s-39.3,85.17-83.4,95.8a115.42,115.42,0,0,1-14.92,2.55c-.9-17.93-1.11-35.74-.68-53.24,17.14-11.41,28-32.66,23.1-52.63a45.42,45.42,0,0,0-16.87-25l5.94-51-17.27-8.72A70.47,70.47,0,0,1,1781.7,317Zm-141.42-84.24c26.06,9.55,46.39,31.45,57.16,57.15l-11-5.56a116.06,116.06,0,0,0-10.35-11.85,86.48,86.48,0,0,0-41.72-21.69,83.64,83.64,0,0,0-17.5-1.59l-32.77-16.55A83.7,83.7,0,0,1,1640.28,232.71Zm77,130.88-3,25.77c-18.55,159.45,15,355.5,118.83,473.18l16,18.11-10.49,22.66c-97.95,211.47-258.32,373.58-463.52,440l-8.53,2.75-8.54-2.75c-205.19-66.41-365.57-228.52-463.52-440L884,880.65l16-18.11c103.82-117.68,137.38-313.73,118.82-473.18l-3-25.77,350.74-177.13ZM1092.78,232.71a83.67,83.67,0,0,1,56.18-.1l-32.81,16.57a83.35,83.35,0,0,0-17.47,1.58A86.48,86.48,0,0,0,1057,272.45a116.2,116.2,0,0,0-10.34,11.85l-11,5.55C1046.39,264.16,1066.72,242.26,1092.78,232.71ZM956.24,507.6c-44.1-10.63-80.93-50.5-83.39-95.8S906.16,321,951.35,317a70.5,70.5,0,0,1,25.59,2.54l-17.28,8.72,5.94,51a45.45,45.45,0,0,0-16.86,25c-4.87,20,6,41.21,23.09,52.62.44,17.51.22,35.32-.67,53.26A115.16,115.16,0,0,1,956.24,507.6Z"/><path class="cls-1" d="M921.9,887.15c86.24,186.18,233.68,354.34,444.63,422.6,211-68.26,358.39-236.42,444.62-422.6-114.54-129.81-146.44-340.09-127.56-502.33L1366.53,224.69,1049.47,384.82C1068.35,547.06,1036.44,757.34,921.9,887.15Zm444.63-616.74,270.84,134.85c-13.25,157.35,21.85,337.57,117.42,457.67-85.28,170.31-218.67,301.34-388.26,358.18-169.59-56.84-303-187.87-388.27-358.18,95.58-120.1,130.67-300.32,117.42-457.67Z"/><path class="cls-1" d="M1429.84,566.1c-13.2-.59-9.69,9.42-1.19,9.14,17-.55,47.33,12.72,53.6-11.56C1458.28,576.19,1441.81,566.63,1429.84,566.1Z"/><path class="cls-1" d="M1161.21,742.32c-1.74,16.25,8.28,34.55,17.08,46.48,7.72,10.45,12.84,14.89,30.45,23.8,37.71,19.08,49.63,5.52,68.82-11.59,20.21-15.16,48.62,29.09,26.26,36.42a19.93,19.93,0,0,1-7.37.88c-6-8.72-7.18-22.22-16.23-26.11-11.57-5-21.86,16.24-16.72,43.57S1255,890.5,1255,890.5a104.05,104.05,0,0,0,12.1.93,33.78,33.78,0,0,0-6.47,5.5c-3.54,4.5-6.27,12.22,2.09,16.88,3.24,1.81,4.5,5.38,4.83,9.08-6.13,4.42-9.23,12.3-8.37,20.18,1.13,10.29,13,15.44,10.77,25.56a31,31,0,0,1-9.64,16.09s21.38,2.89,22.18-9.33,8.21-16.24,8.21-16.24,5.46,1.45,9,8.2.48,24,.48,24,12.86-5,11.26-15.6,7.39-14,7.39-14,2.25.64,6.11,5.62,3.7,18.49,3.7,18.49,10-10.29,6.91-20.58a62.38,62.38,0,0,1-2.12-12,6.94,6.94,0,0,0,.83.11c5.79.32,6.6,10.13,6.6,10.13s8.35-7.24,7.39-17.52-9.49-18-20.26-20.91c-6.45-1.73-11.47,2.14-14.45,5.51a31,31,0,0,1-3.4-.36c-4.15-.69-6.45-5.34-7.6-8.82a11.41,11.41,0,0,0,9.21-5.17,13.64,13.64,0,0,1-9.32-1.61c-4.82-2.73-9.33-9-5.31-16.56,1.51-2.84,2.14-7,2.33-11,5.24,3.39,9.08,11.63,9.08,11.63s5.15-17.84-4.82-29.42a29.52,29.52,0,0,1-7.33-16.55c4.55,1,9.59,3,12.36,7.14,5.41,8.15,15.35,11.73,26.7,5.41a25.14,25.14,0,0,1-2.34,7.85c-16.51,33,31.63-17.63,27.18-47.18,3.91,3.91,4.43,16.76,2.89,21.86,8.85-10.85,8.6-30,4.25-42.77,7.83,18.27,8.65,32.1-1.8,50.39,22.26-12.69,50.91-14.78,74.15-4.39a14.68,14.68,0,0,1,4.5,2.21c-1.47-.79-3-1.52-4.5-2.21-14.36-4.08-29.81,17.91-32.67,30.75,5.65-10,17.84-10.61,27.55-7.48a38.73,38.73,0,0,0-11,5.72c-8.69,6.75-11.26,18.81-11.26,18.81,23.14-12.26,38.42,0,45.75,19.28,3.51,9.26,2.49,20.67,7.76,27.3,10.22,12.89,15.38,21.7-2.51,33.58,38.1,4.26,19.92-18,36.81-25.56,15,3.26,14,20.5,11.49,32.15,24.35-7.78,4.53-24,22.6-29.58,9.43,2.22,12,16,11.88,24.11,14.15-12.05,10-22.08,5.81-32.59,6,1.13,8.38,4,9,10.25,21.91-15.65.15-72.46-56.86-44.7A118.81,118.81,0,0,1,1482.81,894c-5.75-6.54-9-15.64-10.72-24.71,9.29-6.28,19.89-16.16,23.89-30.12,7.77-27-8.1-56.41-39.86-55.06q-3.82.17-7.06.06a20.73,20.73,0,0,0-4.41-4.34,35.91,35.91,0,0,0-15.27-5.23s4.57-7.9,2.7-14.62a13.43,13.43,0,0,1,2.42,1.36c4.62,3.31,5.52,9.14,5.52,9.14,23.22-11.71,26.24-30,23.33-38.31-15.44,1.56-37.21,8-53.86-23.09,11.53,16.57,39.86,19.7,51.84,16.57,12.94-3.38,5.88,15.57,23.05,22.36,3.12,1.24,9.27,4.38,12.68,4.21a20.49,20.49,0,0,1,.65,8.11c-1.4,10.86-15.27,14.88-15.27,14.88s17.08,4.82,24.52-4.63c3.41-4.34,8.4-5.11,12.79-4.69.62,4.16.66,7.93-.53,10.12-3.82,7-8.25,9-8.25,9s15.08-.4,16.69-8.44a35.39,35.39,0,0,0,.53-8.52c.68.28,1.07.48,1.07.48l1.28-4.87a49.41,49.41,0,0,1,5.76,7.89,19.76,19.76,0,0,1,1.81,13.86s13.66-1.81,9.84-14.07,1.21-14.66,1.21-14.66,7.64,3.21,10.85,7a24.15,24.15,0,0,1,4.42,8.44s6.63-9.05-4-22.91-14.68-19.09-32.16-20.7-27.33-8.44-34.77-21.91-13.87-15.88-29.94-21.9c-9.92-3.72-23.86-19.11-28.62-28.63,6.28,4,15.41,10.94,20.27,17,23.9-5.45,37.56-2.37,58.43,10.09-3.34-13-1.46-30,5.49-41.72,10.16-17.14,29.17-22.7,39,7.81,5.17-6.14,4.86-18.6,2.38-26.1,6.11.61,12.31,6,13.92,13.5,5.42-11.11,2.62-24.17-11-26.31,7.34-7.68,15.19-4.56,20.26,5.06,6.93-18.71-7.71-32.24-26.31-27.55,0,0-3.21-9,2.23-10.87s17.1,2.59,17.1,2.59-8.62-25-22.64-19.18c-9.55,4-14,14.37-15.92,21-23.46.67-34,28.67-47.37,44.72-11.38,13.72-19.39,10.64-37.55-1.26-32.2-25.58-49.84-17.78-67.56-13.29-18.2,4.62-33.54,3.24-37.82-18.71,8.29,16,23,19,39.47,13.47,23.46-7.87,44.37-10.43,60.61,11.86,12.91-16.51,4.56-28.22,1.21-38.67-34.29,2.36-48.11-6-48.35-10.74-.33-6.8,31.27-12,44.26-2.33,10.77-3,3.26-9,13.34-17.6,5.43-4.62-.4-11.45-.4-11.45-4.72-4.72-12.39-6.45-14.07-13.47,3.92.77,9.49,3.73,10.15,8,7.68-8.1,2-14.55-6.72-16.63-7.68-1.84-20.08-.26-40.91,12l-.45.3a94.8,94.8,0,0,0,4-10.25c-3.37-16.14-19.89-14.7-30.15-13.61-4.79.5-22.18,4.17-38.69,5.28s-32.41-.34-33.45-10.26c-4.31,13.29-.92,24.76,11.53,31.65-9.88,1.87-29.67,9.91-28.62,32.64-.37,37-21.78,60.26-21.78,60.26s27.66-3.79,39.46-23.5a51,51,0,0,1-4.23,24.16c-8.84,19.49-25.93,25.12-25.93,25.12s30.19,1.91,42.11-11.81a52.75,52.75,0,0,1-3.52,18.44c-7.43,18.89-15.68,22.91-15.68,22.91s31.76-7.84,41.41-25.73c.34-.62.66-1.24,1-1.83a18.46,18.46,0,0,1-.57,8.07,27.1,27.1,0,0,1-12.46,14.07c7.51,57.41-14.92,56.35-37.58,69.36-15.18,8.72-28.78,21.83-39.42,40.42-10.17,17.78-31.13,25.9-47,5.11-11.58-15.23-1.93-26.07-1.93-26.07-6.58-1.53-11.85,4-15.16,8.89-11.18-29.25,5.56-72,35.83-77.7,0,0-5.14-2.87-16.29-2a25.23,25.23,0,0,0-7.28,1.87,64.61,64.61,0,0,1,5.12-5.08c25.12-22.18,39.1-44.17,25.6-61.82s-15.56-38.23-15.56-38.23-6.52,8.18-7.8,15.89a38.71,38.71,0,0,1-18.73-20.33c-7.71-19.09,4.49-35.29,4.49-35.29s-26.08,10.46-31,36.57c-3.1,16.32,10.1,25.49,20.42,30.06-3.79,1.52-7.66,2.43-10.88,1.84-10.18-1.88-14.48-11.06-14.48-11.06s-6.26,18.09,12.94,25.7a122.29,122.29,0,0,0,27.42,6.83c4.26,5.8,7.57,14.25,2,23.66-9.3,15.85-24.51,29.52-30.8,46.32-7.7-9-26.7-7.3-26.7-7.3S1164.48,711.83,1161.21,742.32Zm233-208.38c-9,3.66-17.43,10.41-31.62,4.51C1369.42,527,1377.91,534.48,1394.25,533.94Z"/><polygon class="cls-1" points="2725.3 1766.71 1479.35 1741.76 1479.35 1794.47 2725.3 1769.53 2725.3 1766.71"/><polygon class="cls-1" points="1245.95 1741.76 0 1766.71 0 1769.53 1245.95 1794.47 1245.95 1741.76"/><polygon class="cls-1" points="1487.11 2235.95 1487.11 2288.66 2733.06 2263.72 2733.06 2260.9 1487.11 2235.95"/><polygon class="cls-1" points="7.76 2263.72 1253.71 2288.66 1253.71 2235.95 7.76 2260.9 7.76 2263.72"/><polygon class="cls-1" points="436.94 2149.52 356.6 2149.52 356.6 2047.42 257.27 2047.42 257.27 2149.52 176.93 2149.52 176.93 1885.56 257.27 1885.56 257.27 1983.7 356.6 1983.7 356.6 1885.56 436.94 1885.56 436.94 2149.52"/><path class="cls-1" d="M847.34,1946.5c-12.66-21-30.47-37.2-53.42-49.47q-34.44-17.8-77.18-17.8-43.34,0-77.17,17.8c-23,11.88-40.76,28.5-53.42,49.47-13.06,21-19.4,44.72-19.4,71.24,0,26.12,6.34,49.86,19.4,71.23a142.31,142.31,0,0,0,23,28.1c8.71,8.31,19,15,30.47,21,22.56,12.26,48.28,18.2,77.17,18.2,28.5,0,54.22-5.94,77.18-18.2,23-11.88,40.76-28.1,53.42-49.08a137.34,137.34,0,0,0,19.39-71.23C866.73,1991.22,860,1967.48,847.34,1946.5ZM776.5,2056.92a65.57,65.57,0,0,1-59.36,36,66.76,66.76,0,0,1-59.76-36c-5.93-11.48-9.1-24.54-9.1-39.58s3.17-28.49,9.1-39.57a67.1,67.1,0,0,1,24.93-26.52,64.81,64.81,0,0,1,34.83-9.5,65.8,65.8,0,0,1,34.83,9.5,68.89,68.89,0,0,1,24.53,26.52,86.88,86.88,0,0,1,9.1,39.57C785.6,2032.78,782.44,2045.84,776.5,2056.92Z"/><polygon class="cls-1" points="1191.64 2003.49 1191.64 2060.88 1076.08 2060.88 1076.08 2149.52 995.74 2149.52 995.74 1885.56 1207.87 1885.56 1207.87 1942.94 1076.08 1942.94 1076.08 2003.49 1191.64 2003.49"/><path class="cls-1" d="M1587.73,2031.19c0,39.58-11.08,70-33.64,91.82-22.16,21.76-53.82,32.45-94.58,32.45-40.37,0-72-10.69-94.59-32.45-22.55-21.37-33.63-51.85-33.63-91.82V1885.56h80.33v143.26c0,22.16,4,38,12.27,48.28,8.31,10.69,20.58,16.23,36.81,16.23,15.83,0,28.09-5.54,36.4-16.23s12.67-26.91,12.67-48.28V1885.56h78.36v145.63Z"/><path class="cls-1" d="M2555.73,2031.19c0,39.58-11.08,70-33.64,91.82-22.16,21.76-53.82,32.45-94.58,32.45-40.37,0-72-10.69-94.59-32.45-22.55-21.37-33.64-51.85-33.64-91.82V1885.56h80.34v143.26c0,22.16,4,38,12.27,48.28,8.31,10.69,20.58,16.23,36.81,16.23,15.83,0,28.09-5.54,36.4-16.23s12.67-26.91,12.67-48.28V1885.56h78.36v145.63Z"/><path id="path366792" class="cls-1" d="M1717,2145.57c9.9,9.49,22.56,14.24,37.6,14.24s27.31-4.75,37.2-14.24,15-22.17,15-37.21-5.15-26.91-15-36.4-22.16-14.25-37.2-14.25-27.7,4.75-37.6,14.25-14.64,21.37-14.64,36.4S1707.12,2136.07,1717,2145.57Z"/><path class="cls-1" d="M2167,2128.94l-39.57-58.17v-.4c16.62-8.7,29.68-20.18,38.78-35.22,8.7-14.64,13.06-31.66,13.45-51.45-.39-21-5.54-39.57-15.83-55.4s-24.93-28.1-43.53-36.41c-19.39-8.71-41.55-12.66-67.28-12.66H1920v276.62h93.4V2086.2h25.33l31.66,47.49,15.43,22.16h99.73Zm-86.67-116.74c-7.52,7.12-18.6,10.29-32.85,10.29h-40.76v-78h40.76c14.25,0,25.33,3.57,32.85,10.29,7.52,7.13,11.48,16.63,11.48,28.89S2087.84,2005.47,2080.32,2012.2Z"/></g></g></svg>